<svg xmlns="http://www.w3.org/2000/svg" viewBox="0 0 960 855" font-family="Segoe UI, Arial, sans-serif">
  <defs>
    <linearGradient id="uiGrad" x1="0%" y1="0%" x2="0%" y2="100%">
      <stop offset="0%" style="stop-color:#4A90D9;stop-opacity:1" />
      <stop offset="100%" style="stop-color:#357ABD;stop-opacity:1" />
    </linearGradient>
    <linearGradient id="fastapiGrad" x1="0%" y1="0%" x2="0%" y2="100%">
      <stop offset="0%" style="stop-color:#009688;stop-opacity:1" />
      <stop offset="100%" style="stop-color:#00796B;stop-opacity:1" />
    </linearGradient>
    <linearGradient id="dbGrad" x1="0%" y1="0%" x2="0%" y2="100%">
      <stop offset="0%" style="stop-color:#E67E22;stop-opacity:1" />
      <stop offset="100%" style="stop-color:#D35400;stop-opacity:1" />
    </linearGradient>
    <linearGradient id="tsGrad" x1="0%" y1="0%" x2="0%" y2="100%">
      <stop offset="0%" style="stop-color:#8E44AD;stop-opacity:1" />
      <stop offset="100%" style="stop-color:#6C3483;stop-opacity:1" />
    </linearGradient>
    <linearGradient id="agentGrad" x1="0%" y1="0%" x2="0%" y2="100%">
      <stop offset="0%" style="stop-color:#2980B9;stop-opacity:1" />
      <stop offset="100%" style="stop-color:#1F618D;stop-opacity:1" />
    </linearGradient>
    <linearGradient id="mcpGrad" x1="0%" y1="0%" x2="0%" y2="100%">
      <stop offset="0%" style="stop-color:#16A085;stop-opacity:1" />
      <stop offset="100%" style="stop-color:#0E6655;stop-opacity:1" />
    </linearGradient>
    <filter id="shadow" x="-5%" y="-5%" width="110%" height="115%">
      <feDropShadow dx="2" dy="3" stdDeviation="3" flood-opacity="0.2"/>
    </filter>
    <marker id="arrow" markerWidth="10" markerHeight="10" refX="9" refY="3" orient="auto">
      <path d="M0,0 L0,6 L9,3 z" fill="#95a5a6"/>
    </marker>
  </defs>
  
  <!-- Background -->
  <rect width="960" height="855" fill="#f8f9fa"/>
  
  <!-- Title -->
  <text x="480" y="35" text-anchor="middle" font-size="22" font-weight="bold" fill="#2c3e50">OntoBricks Architecture</text>
  
  <!-- UI Layer -->
  <g filter="url(#shadow)">
    <rect x="50" y="60" width="660" height="100" rx="8" fill="url(#uiGrad)"/>
    <text x="380" y="85" text-anchor="middle" font-size="14" font-weight="bold" fill="white">USER INTERFACE</text>
    <text x="380" y="103" text-anchor="middle" font-size="11" fill="rgba(255,255,255,0.85)">Bootstrap 5.3 + OntoViz + Sigma.js + Graphology + D3.js</text>
    
    <rect x="70" y="115" width="76" height="35" rx="4" fill="white" fill-opacity="0.2"/>
    <text x="108" y="137" text-anchor="middle" font-size="9" fill="white">OntoViz Designer</text>
    
    <rect x="152" y="115" width="76" height="35" rx="4" fill="white" fill-opacity="0.2"/>
    <text x="190" y="137" text-anchor="middle" font-size="9" fill="white">Mapping Editor</text>
    
    <rect x="234" y="115" width="76" height="35" rx="4" fill="white" fill-opacity="0.2"/>
    <text x="272" y="137" text-anchor="middle" font-size="9" fill="white">Query / Sync</text>
    
    <rect x="316" y="115" width="76" height="35" rx="4" fill="white" fill-opacity="0.2"/>
    <text x="354" y="137" text-anchor="middle" font-size="9" fill="white">Knowledge Graph</text>
    
    <rect x="398" y="115" width="76" height="35" rx="4" fill="white" fill-opacity="0.2"/>
    <text x="436" y="137" text-anchor="middle" font-size="9" fill="white">Data Quality</text>
    
    <rect x="480" y="115" width="76" height="35" rx="4" fill="white" fill-opacity="0.2"/>
    <text x="518" y="137" text-anchor="middle" font-size="9" fill="white">Settings</text>
    
    <rect x="562" y="115" width="76" height="35" rx="4" fill="white" fill-opacity="0.2"/>
    <text x="600" y="137" text-anchor="middle" font-size="9" fill="white">GraphiQL</text>
  </g>
  
  <!-- MCP Server (right side) -->
  <g filter="url(#shadow)">
    <rect x="740" y="60" width="190" height="100" rx="8" fill="url(#mcpGrad)"/>
    <text x="835" y="85" text-anchor="middle" font-size="13" font-weight="bold" fill="white">MCP SERVER</text>
    <text x="835" y="103" text-anchor="middle" font-size="10" fill="rgba(255,255,255,0.85)">mcp-ontobricks App</text>
    
    <rect x="755" y="115" width="160" height="35" rx="4" fill="white" fill-opacity="0.2"/>
    <text x="835" y="130" text-anchor="middle" font-size="9" fill="white">KG Tools for LLMs</text>
    <text x="835" y="143" text-anchor="middle" font-size="8" fill="rgba(255,255,255,0.7)">Claude, Cursor, Playground</text>
  </g>
  
  <!-- Arrow UI to FastAPI -->
  <path d="M380 160 L380 185" stroke="#95a5a6" stroke-width="2" marker-end="url(#arrow)"/>
  <text x="410" y="175" font-size="10" fill="#7f8c8d">HTTP / REST</text>
  
  <!-- Arrow MCP to FastAPI -->
  <path d="M835 160 L835 185" stroke="#95a5a6" stroke-width="2" marker-end="url(#arrow)"/>
  <text x="865" y="175" font-size="10" fill="#7f8c8d">REST API</text>
  
  <!-- FastAPI Application Layer -->
  <g filter="url(#shadow)">
    <rect x="50" y="190" width="880" height="285" rx="8" fill="url(#fastapiGrad)"/>
    <text x="480" y="215" text-anchor="middle" font-size="14" font-weight="bold" fill="white">FASTAPI APPLICATION</text>
    
    <!-- Routes Layer -->
    <rect x="70" y="230" width="840" height="55" rx="4" fill="white" fill-opacity="0.15"/>
    <text x="90" y="250" font-size="11" font-weight="600" fill="white">ROUTES LAYER</text>
    <text x="90" y="268" font-size="9" fill="rgba(255,255,255,0.8)">Thin HTTP handlers (APIRouter)</text>
    
    <rect x="250" y="240" width="75" height="30" rx="3" fill="white" fill-opacity="0.25"/>
    <text x="287" y="260" text-anchor="middle" font-size="9" fill="white">home</text>
    
    <rect x="335" y="240" width="75" height="30" rx="3" fill="white" fill-opacity="0.25"/>
    <text x="372" y="260" text-anchor="middle" font-size="9" fill="white">config</text>
    
    <rect x="420" y="240" width="75" height="30" rx="3" fill="white" fill-opacity="0.25"/>
    <text x="457" y="260" text-anchor="middle" font-size="9" fill="white">ontology</text>
    
    <rect x="505" y="240" width="75" height="30" rx="3" fill="white" fill-opacity="0.25"/>
    <text x="542" y="260" text-anchor="middle" font-size="9" fill="white">mapping</text>
    
    <rect x="590" y="240" width="75" height="30" rx="3" fill="white" fill-opacity="0.25"/>
    <text x="627" y="260" text-anchor="middle" font-size="9" fill="white">dtwin</text>
    
    <rect x="675" y="240" width="75" height="30" rx="3" fill="white" fill-opacity="0.25"/>
    <text x="712" y="260" text-anchor="middle" font-size="9" fill="white">project</text>
    
    <rect x="760" y="240" width="75" height="30" rx="3" fill="white" fill-opacity="0.25"/>
    <text x="797" y="260" text-anchor="middle" font-size="9" fill="white">graphql</text>
    
    <rect x="845" y="240" width="55" height="30" rx="3" fill="white" fill-opacity="0.25"/>
    <text x="872" y="260" text-anchor="middle" font-size="9" fill="white">api/v1</text>
    
    <!-- Services Layer -->
    <rect x="70" y="295" width="840" height="55" rx="4" fill="white" fill-opacity="0.15"/>
    <text x="90" y="315" font-size="11" font-weight="600" fill="white">SERVICES LAYER</text>
    <text x="90" y="333" font-size="9" fill="rgba(255,255,255,0.8)">Business logic + task orchestration</text>
    
    <rect x="250" y="305" width="120" height="30" rx="3" fill="white" fill-opacity="0.25"/>
    <text x="310" y="325" text-anchor="middle" font-size="9" fill="white">ProjectSession</text>
    
    <rect x="385" y="305" width="120" height="30" rx="3" fill="white" fill-opacity="0.25"/>
    <text x="445" y="325" text-anchor="middle" font-size="9" fill="white">ontology/service</text>
    
    <rect x="520" y="305" width="120" height="30" rx="3" fill="white" fill-opacity="0.25"/>
    <text x="580" y="325" text-anchor="middle" font-size="9" fill="white">sparql_service</text>
    
    <rect x="655" y="305" width="120" height="30" rx="3" fill="white" fill-opacity="0.25"/>
    <text x="715" y="325" text-anchor="middle" font-size="9" fill="white">TaskManager</text>
    
    <rect x="790" y="305" width="115" height="30" rx="3" fill="white" fill-opacity="0.25"/>
    <text x="847" y="325" text-anchor="middle" font-size="9" fill="white">GlobalConfig</text>
    
    <!-- Core Layer -->
    <rect x="70" y="360" width="840" height="110" rx="4" fill="white" fill-opacity="0.15"/>
    <text x="90" y="378" font-size="11" font-weight="600" fill="white">CORE LAYER (app/core/)</text>
    
    <rect x="250" y="388" width="100" height="35" rx="3" fill="white" fill-opacity="0.25"/>
    <text x="300" y="403" text-anchor="middle" font-size="9" fill="white">Databricks</text>
    <text x="300" y="416" text-anchor="middle" font-size="8" fill="rgba(255,255,255,0.7)">Client + UC Files</text>
    
    <rect x="360" y="388" width="115" height="35" rx="3" fill="white" fill-opacity="0.25"/>
    <text x="417" y="403" text-anchor="middle" font-size="9" fill="white">W3C Standards</text>
    <text x="417" y="416" text-anchor="middle" font-size="7" fill="rgba(255,255,255,0.7)">OWL / R2RML / SPARQL / SHACL</text>
    
    <rect x="485" y="388" width="100" height="35" rx="3" fill="white" fill-opacity="0.25"/>
    <text x="535" y="403" text-anchor="middle" font-size="9" fill="white">Triple Store</text>
    <text x="535" y="416" text-anchor="middle" font-size="8" fill="rgba(255,255,255,0.7)">Delta + Lakebase</text>
    
    <rect x="600" y="388" width="100" height="35" rx="3" fill="white" fill-opacity="0.25"/>
    <text x="650" y="403" text-anchor="middle" font-size="9" fill="white">Registry</text>
    <text x="650" y="416" text-anchor="middle" font-size="8" fill="rgba(255,255,255,0.7)">Perms + Scheduler</text>
    
    <rect x="795" y="388" width="110" height="35" rx="3" fill="white" fill-opacity="0.25"/>
    <text x="850" y="403" text-anchor="middle" font-size="9" fill="white">GraphQL</text>
    <text x="850" y="416" text-anchor="middle" font-size="8" fill="rgba(255,255,255,0.7)">Schema + Resolvers</text>
    
    <rect x="250" y="428" width="100" height="35" rx="3" fill="white" fill-opacity="0.25"/>
    <text x="300" y="443" text-anchor="middle" font-size="9" fill="white">Reasoning</text>
    <text x="300" y="456" text-anchor="middle" font-size="8" fill="rgba(255,255,255,0.7)">OWL RL + SWRL</text>
    
    <rect x="360" y="428" width="115" height="35" rx="3" fill="white" fill-opacity="0.25"/>
    <text x="417" y="443" text-anchor="middle" font-size="9" fill="white">Industry</text>
    <text x="417" y="456" text-anchor="middle" font-size="8" fill="rgba(255,255,255,0.7)">FIBO / CDISC / IOF</text>
  </g>
  
  <!-- Agents Layer (left side below FastAPI) -->
  <g filter="url(#shadow)">
    <rect x="50" y="495" width="240" height="115" rx="8" fill="url(#agentGrad)"/>
    <text x="170" y="520" text-anchor="middle" font-size="13" font-weight="bold" fill="white">LLM AGENTS</text>
    <text x="170" y="535" text-anchor="middle" font-size="9" fill="rgba(255,255,255,0.8)">MLflow-traced agentic loops</text>
    
    <rect x="58" y="545" width="70" height="28" rx="3" fill="white" fill-opacity="0.2"/>
    <text x="93" y="563" text-anchor="middle" font-size="8" fill="white">OWL Generator</text>
    
    <rect x="135" y="545" width="70" height="28" rx="3" fill="white" fill-opacity="0.2"/>
    <text x="170" y="563" text-anchor="middle" font-size="8" fill="white">Auto-Assign</text>
    
    <rect x="212" y="545" width="70" height="28" rx="3" fill="white" fill-opacity="0.2"/>
    <text x="247" y="563" text-anchor="middle" font-size="8" fill="white">SQL Wizard</text>
    
    <rect x="95" y="578" width="85" height="28" rx="3" fill="white" fill-opacity="0.2"/>
    <text x="137" y="596" text-anchor="middle" font-size="8" fill="white">Icon Assign</text>
    
    <rect x="190" y="578" width="85" height="28" rx="3" fill="white" fill-opacity="0.2"/>
    <text x="232" y="596" text-anchor="middle" font-size="8" fill="white">Ontology Asst.</text>
  </g>
  
  <!-- Triple Store Backends -->
  <g filter="url(#shadow)">
    <rect x="310" y="495" width="350" height="115" rx="8" fill="url(#tsGrad)"/>
    <text x="485" y="520" text-anchor="middle" font-size="13" font-weight="bold" fill="white">TRIPLE STORE BACKENDS</text>
    <text x="485" y="535" text-anchor="middle" font-size="9" fill="rgba(255,255,255,0.8)">Interchangeable per project</text>
    
    <rect x="325" y="545" width="150" height="55" rx="4" fill="white" fill-opacity="0.2"/>
    <text x="400" y="565" text-anchor="middle" font-size="10" font-weight="600" fill="white">Delta</text>
    <text x="400" y="580" text-anchor="middle" font-size="8" fill="rgba(255,255,255,0.8)">SQL Warehouse</text>
    <text x="400" y="592" text-anchor="middle" font-size="8" fill="rgba(255,255,255,0.8)">Spark SQL</text>
    
    <rect x="495" y="545" width="150" height="55" rx="4" fill="white" fill-opacity="0.2"/>
    <text x="570" y="565" text-anchor="middle" font-size="10" font-weight="600" fill="white">Lakebase</text>
    <text x="570" y="580" text-anchor="middle" font-size="8" fill="rgba(255,255,255,0.8)">Managed Postgres</text>
    <text x="570" y="592" text-anchor="middle" font-size="8" fill="rgba(255,255,255,0.8)">SQL · UC-synced</text>
  </g>
  
  <!-- Arrow FastAPI to Triple Store -->
  <path d="M485 475 L485 490" stroke="#95a5a6" stroke-width="2" marker-end="url(#arrow)"/>
  
  <!-- Arrow FastAPI to Agents -->
  <path d="M170 475 L170 490" stroke="#95a5a6" stroke-width="2" marker-end="url(#arrow)"/>
  <text x="200" y="487" font-size="9" fill="#7f8c8d">LLM calls</text>
  
  <!-- Arrow Triple Store to Databricks -->
  <path d="M430 610 L430 640" stroke="#95a5a6" stroke-width="2" marker-end="url(#arrow)"/>
  <text x="380" y="630" font-size="9" fill="#7f8c8d">SQL Connector</text>
  
  <!-- Arrow Lakebase down to Postgres endpoint -->
  <path d="M595 610 L595 640" stroke="#95a5a6" stroke-width="2" marker-end="url(#arrow)"/>
  <text x="625" y="630" font-size="9" fill="#7f8c8d">Postgres</text>
  
  <!-- UC Volume Config (right side) -->
  <g filter="url(#shadow)">
    <rect x="680" y="495" width="250" height="115" rx="8" fill="#5D6D7E"/>
    <text x="805" y="520" text-anchor="middle" font-size="12" font-weight="bold" fill="white">UC VOLUME (REGISTRY)</text>
    <text x="805" y="535" text-anchor="middle" font-size="9" fill="rgba(255,255,255,0.8)">Instance-level shared storage</text>
    
    <rect x="695" y="545" width="105" height="28" rx="3" fill="white" fill-opacity="0.2"/>
    <text x="747" y="563" text-anchor="middle" font-size="8" fill="white">.global_config.json</text>
    
    <rect x="810" y="545" width="105" height="28" rx="3" fill="white" fill-opacity="0.2"/>
    <text x="862" y="563" text-anchor="middle" font-size="8" fill="white">.permissions.json</text>
    
    <rect x="695" y="578" width="105" height="28" rx="3" fill="white" fill-opacity="0.2"/>
    <text x="747" y="596" text-anchor="middle" font-size="8" fill="white">.registry marker</text>
    
    <rect x="810" y="578" width="105" height="28" rx="3" fill="white" fill-opacity="0.2"/>
    <text x="862" y="596" text-anchor="middle" font-size="8" fill="white">Project versions</text>
  </g>
  
  <!-- Databricks Layer -->
  <g filter="url(#shadow)">
    <rect x="50" y="645" width="880" height="185" rx="8" fill="url(#dbGrad)"/>
    <text x="480" y="670" text-anchor="middle" font-size="14" font-weight="bold" fill="white">DATABRICKS PLATFORM</text>
    
    <!-- Unity Catalog -->
    <rect x="70" y="685" width="420" height="130" rx="4" fill="white" fill-opacity="0.15"/>
    <text x="280" y="705" text-anchor="middle" font-size="12" font-weight="600" fill="white">Unity Catalog</text>
    
    <rect x="90" y="720" width="80" height="35" rx="3" fill="white" fill-opacity="0.25"/>
    <text x="130" y="742" text-anchor="middle" font-size="9" fill="white">Catalogs</text>
    
    <rect x="185" y="720" width="80" height="35" rx="3" fill="white" fill-opacity="0.25"/>
    <text x="225" y="742" text-anchor="middle" font-size="9" fill="white">Schemas</text>
    
    <rect x="280" y="720" width="80" height="35" rx="3" fill="white" fill-opacity="0.25"/>
    <text x="320" y="742" text-anchor="middle" font-size="9" fill="white">Tables</text>
    
    <rect x="375" y="720" width="80" height="35" rx="3" fill="white" fill-opacity="0.25"/>
    <text x="415" y="742" text-anchor="middle" font-size="9" fill="white">Volumes</text>
    
    <text x="280" y="790" text-anchor="middle" font-size="9" fill="rgba(255,255,255,0.8)">Metadata management · Access control · Governance</text>
    
    <!-- SQL Warehouse -->
    <rect x="510" y="685" width="400" height="130" rx="4" fill="white" fill-opacity="0.15"/>
    <text x="710" y="705" text-anchor="middle" font-size="12" font-weight="600" fill="white">SQL Warehouse</text>
    <rect x="520" y="720" width="380" height="30" rx="3" fill="white" fill-opacity="0.1"/>
    <text x="710" y="740" text-anchor="middle" font-size="9" fill="white">Spark SQL Engine + Photon Acceleration</text>
    <rect x="520" y="755" width="380" height="30" rx="3" fill="white" fill-opacity="0.1"/>
    <text x="710" y="775" text-anchor="middle" font-size="9" fill="white">Delta table storage for triple store backend</text>
  </g>
  
  <!-- Legend -->
  <rect x="50" y="56" width="10" height="10" rx="2" fill="url(#uiGrad)"/>
  <rect x="50" y="56" width="0" height="0"/>
</svg>
