<svg xmlns="http://www.w3.org/2000/svg" viewBox="0 0 800 500" font-family="Segoe UI, Arial, sans-serif">
  <defs>
    <linearGradient id="navGrad" x1="0%" y1="0%" x2="0%" y2="100%">
      <stop offset="0%" style="stop-color:#2C3E50;stop-opacity:1" />
      <stop offset="100%" style="stop-color:#1a252f;stop-opacity:1" />
    </linearGradient>
    <linearGradient id="sidebarGrad" x1="0%" y1="0%" x2="100%" y2="0%">
      <stop offset="0%" style="stop-color:#f8f9fa;stop-opacity:1" />
      <stop offset="100%" style="stop-color:#e9ecef;stop-opacity:1" />
    </linearGradient>
    <filter id="shadow" x="-5%" y="-5%" width="110%" height="115%">
      <feDropShadow dx="1" dy="2" stdDeviation="2" flood-opacity="0.1"/>
    </filter>
  </defs>
  
  <!-- Background -->
  <rect width="800" height="500" fill="#dee2e6"/>
  
  <!-- Title -->
  <text x="400" y="25" text-anchor="middle" font-size="18" font-weight="bold" fill="#2c3e50">UI Layout Architecture</text>
  
  <!-- Browser Frame -->
  <g filter="url(#shadow)">
    <rect x="40" y="40" width="720" height="440" rx="8" fill="white" stroke="#adb5bd" stroke-width="1"/>
    
    <!-- Browser Controls -->
    <rect x="40" y="40" width="720" height="25" rx="8" fill="#f1f3f5"/>
    <rect x="40" y="57" width="720" height="8" fill="#f1f3f5"/>
    <circle cx="58" cy="52" r="5" fill="#ff5f56"/>
    <circle cx="78" cy="52" r="5" fill="#ffbd2e"/>
    <circle cx="98" cy="52" r="5" fill="#27c93f"/>
    <rect x="150" y="46" width="450" height="16" rx="3" fill="white" stroke="#ced4da" stroke-width="1"/>
    <text x="375" y="58" text-anchor="middle" font-size="9" fill="#6c757d">localhost:8000/ontology</text>
  </g>
  
  <!-- Navbar -->
  <rect x="40" y="65" width="720" height="45" fill="url(#navGrad)"/>
  <text x="70" y="93" font-size="14" font-weight="bold" fill="white">OntoBricks</text>
  
  <!-- Nav Items -->
  <rect x="170" y="78" width="60" height="22" rx="3" fill="rgba(255,255,255,0.1)"/>
  <text x="200" y="93" text-anchor="middle" font-size="10" fill="rgba(255,255,255,0.7)">Project</text>
  
  <rect x="240" y="78" width="70" height="22" rx="3" fill="rgba(255,255,255,0.2)"/>
  <text x="275" y="93" text-anchor="middle" font-size="10" fill="white">Ontology</text>
  
  <rect x="320" y="78" width="80" height="22" rx="3" fill="rgba(255,255,255,0.1)"/>
  <text x="360" y="93" text-anchor="middle" font-size="10" fill="rgba(255,255,255,0.7)">Assignment</text>
  
  <rect x="410" y="78" width="90" height="22" rx="3" fill="rgba(255,255,255,0.1)"/>
  <text x="455" y="93" text-anchor="middle" font-size="10" fill="rgba(255,255,255,0.7)">Digital Twin</text>
  
  <!-- Status indicators -->
  <rect x="620" y="78" width="120" height="22" rx="3" fill="rgba(39,174,96,0.2)"/>
  <circle cx="635" cy="89" r="4" fill="#27AE60"/>
  <text x="695" y="93" text-anchor="middle" font-size="9" fill="#27AE60">Connected</text>
  
  <!-- Main Content Area -->
  <rect x="40" y="110" width="720" height="370" fill="#f8f9fa"/>
  
  <!-- Sidebar -->
  <rect x="40" y="110" width="160" height="370" fill="url(#sidebarGrad)" stroke="#dee2e6" stroke-width="1"/>
  
  <!-- Sidebar Title -->
  <text x="55" y="135" font-size="9" font-weight="600" fill="#6c757d" letter-spacing="1">ONTOLOGY EDITOR</text>
  
  <!-- Sidebar Items -->
  <rect x="40" y="145" width="160" height="35" fill="#e9ecef"/>
  <rect x="40" y="145" width="3" height="35" fill="#2C3E50"/>
  <text x="70" y="167" font-size="11" fill="#2C3E50">Information</text>
  
  <rect x="40" y="180" width="160" height="35" fill="transparent"/>
  <text x="70" y="202" font-size="11" fill="#6c757d">Entities</text>
  
  <rect x="40" y="215" width="160" height="35" fill="transparent"/>
  <text x="70" y="237" font-size="11" fill="#6c757d">Relationships</text>
  
  <rect x="40" y="250" width="160" height="35" fill="transparent"/>
  <text x="70" y="272" font-size="11" fill="#6c757d">Business Rules</text>
  
  <!-- Sidebar Section 2 -->
  <text x="55" y="310" font-size="9" font-weight="600" fill="#6c757d" letter-spacing="1">PREVIEW</text>
  
  <rect x="40" y="320" width="160" height="35" fill="transparent"/>
  <text x="70" y="342" font-size="11" fill="#6c757d">Business Views</text>
  
  <rect x="40" y="355" width="160" height="35" fill="transparent"/>
  <text x="70" y="377" font-size="11" fill="#6c757d">OWL</text>
  
  <!-- Content Area -->
  <rect x="200" y="110" width="560" height="370" fill="white"/>
  
  <!-- Content Card -->
  <g filter="url(#shadow)">
    <rect x="215" y="125" width="530" height="340" rx="6" fill="white" stroke="#dee2e6" stroke-width="1"/>
    
    <!-- Card Header -->
    <rect x="215" y="125" width="530" height="40" rx="6" fill="#f8f9fa"/>
    <rect x="215" y="159" width="530" height="6" fill="#f8f9fa"/>
    <text x="235" y="150" font-size="12" font-weight="600" fill="#2c3e50">Ontology Information</text>
    
    <!-- Card Content -->
    <text x="235" y="190" font-size="10" fill="#6c757d">Ontology Name</text>
    <rect x="235" y="198" width="250" height="30" rx="4" fill="#f8f9fa" stroke="#ced4da" stroke-width="1"/>
    <text x="245" y="218" font-size="11" fill="#495057">My Enterprise Ontology</text>
    
    <text x="235" y="250" font-size="10" fill="#6c757d">Base URI</text>
    <rect x="235" y="258" width="400" height="30" rx="4" fill="#f8f9fa" stroke="#ced4da" stroke-width="1"/>
    <text x="245" y="278" font-size="10" fill="#495057" font-family="Consolas, monospace">https://example.org/ontology#</text>
    
    <!-- Action Buttons -->
    <rect x="235" y="310" width="100" height="32" rx="4" fill="#6c757d"/>
    <text x="285" y="330" text-anchor="middle" font-size="10" fill="white">Import OWL</text>
    
    <rect x="345" y="310" width="100" height="32" rx="4" fill="#6c757d"/>
    <text x="395" y="330" text-anchor="middle" font-size="10" fill="white">Export OWL</text>
    
    <rect x="455" y="310" width="80" height="32" rx="4" fill="white" stroke="#dc3545" stroke-width="1"/>
    <text x="495" y="330" text-anchor="middle" font-size="10" fill="#dc3545">Reset</text>
  </g>
  
  <!-- Layout Labels -->
  <rect x="85" y="420" width="80" height="20" rx="3" fill="#3498DB"/>
  <text x="125" y="434" text-anchor="middle" font-size="9" fill="white">Sidebar Nav</text>
  
  <rect x="420" y="420" width="100" height="20" rx="3" fill="#27AE60"/>
  <text x="470" y="434" text-anchor="middle" font-size="9" fill="white">Content Section</text>
  
  <!-- Annotation Lines -->
  <line x1="125" y1="410" x2="125" y2="390" stroke="#3498DB" stroke-width="1" stroke-dasharray="3,3"/>
  <line x1="470" y1="410" x2="470" y2="360" stroke="#27AE60" stroke-width="1" stroke-dasharray="3,3"/>
</svg>
